<?xml version="1.0" standalone="no"?>
<!DOCTYPE svg PUBLIC "-//W3C//DTD SVG 20010904//EN"
 "http://www.w3.org/TR/2001/REC-SVG-20010904/DTD/svg10.dtd">
<svg version="1.0" xmlns="http://www.w3.org/2000/svg"
 width="645.000000pt" height="753.000000pt" viewBox="0 0 645.000000 753.000000"
 preserveAspectRatio="xMidYMid meet">
<metadata>
Created by potrace 1.15, written by Peter Selinger 2001-2017
</metadata>
<g transform="translate(0.000000,753.000000) scale(0.100000,-0.100000)"
fill="#000000" stroke="none">
<path d="M4090 7448 c-79 -6 -153 -18 -325 -54 -120 -25 -237 -89 -345 -189
-40 -37 -69 -54 -105 -63 -304 -78 -637 -349 -791 -645 -61 -117 -88 -202
-124 -377 -47 -235 -54 -308 -44 -465 5 -77 8 -241 6 -365 -4 -307 12 -430 88
-673 51 -166 53 -216 6 -271 l-33 -39 -59 74 c-124 158 -236 250 -407 336
-143 71 -256 107 -402 128 -154 22 -279 16 -490 -25 -275 -53 -375 -100 -419
-198 -10 -22 -28 -44 -40 -50 -51 -23 -178 -136 -240 -213 -74 -93 -152 -236
-190 -349 -27 -83 -68 -275 -91 -427 -47 -312 15 -674 184 -1072 32 -75 63
-151 70 -170 15 -46 13 -133 -4 -206 -18 -72 -19 -194 -4 -267 18 -82 84 -204
143 -263 60 -60 186 -126 281 -146 85 -18 272 -16 389 5 l99 18 22 -24 c18
-18 30 -64 64 -238 67 -346 75 -374 140 -506 52 -105 69 -129 133 -190 161
-153 443 -255 743 -270 132 -7 281 13 388 52 199 72 328 102 388 90 20 -3 65
-31 109 -67 87 -70 250 -156 365 -192 126 -39 306 -61 449 -54 154 8 227 26
336 83 117 60 185 131 245 256 53 110 73 209 82 405 5 103 10 136 22 147 9 8
52 24 96 36 117 31 244 102 333 185 42 39 120 129 174 200 54 72 143 187 197
257 207 269 303 503 303 738 1 133 -22 225 -86 355 -49 99 -64 120 -145 198
-81 78 -103 93 -228 153 -76 37 -146 74 -155 82 -45 38 -10 74 150 157 195
101 272 179 367 370 126 253 147 400 98 683 l-17 101 27 123 c15 68 34 181 42
251 18 161 24 180 85 310 58 123 74 179 90 314 7 54 18 112 25 128 7 17 48 68
90 115 146 160 204 334 175 534 -17 120 -78 244 -161 327 -76 76 -219 149
-371 189 -125 33 -134 38 -241 132 -43 38 -142 112 -220 163 -78 52 -174 120
-213 153 -76 63 -230 147 -332 181 -138 47 -431 62 -722 39z m-153 -304 l30
-6 -13 -43 c-34 -115 -47 -256 -41 -469 4 -186 3 -217 -14 -279 -11 -38 -27
-83 -35 -99 -15 -29 -15 -29 8 -17 13 6 33 21 45 32 13 11 24 19 26 16 1 -2
16 -24 32 -47 39 -59 105 -113 261 -214 198 -129 231 -171 193 -243 -23 -42
-23 -40 -3 -59 34 -35 131 -12 176 43 22 25 27 28 30 13 5 -26 -6 -87 -36
-186 -47 -159 -28 -267 61 -347 110 -99 284 -89 377 22 43 50 28 105 -26 97
-18 -2 -24 -11 -28 -38 -3 -24 -11 -36 -24 -38 -22 -5 -35 13 -29 39 9 35 142
139 178 139 9 0 6 -117 -4 -142 -5 -13 -41 -59 -81 -102 -83 -90 -114 -151
-135 -261 -30 -155 -13 -219 89 -335 119 -136 134 -210 71 -361 -76 -182 -98
-199 -271 -199 -121 0 -234 20 -317 57 -66 30 -186 149 -227 226 -24 46 -24
47 -5 61 19 14 19 15 2 22 -24 9 -84 -2 -113 -21 -15 -10 -24 -25 -24 -41 0
-24 3 -26 28 -21 25 5 31 -1 77 -70 59 -88 149 -174 220 -208 68 -34 173 -55
274 -55 81 0 84 -1 67 -18 -24 -28 -83 -42 -173 -42 -158 0 -280 55 -482 216
-69 56 -128 100 -130 98 -9 -8 56 -101 114 -162 l63 -67 -8 -80 c-14 -138 16
-309 75 -425 13 -25 59 -95 103 -156 43 -61 91 -131 105 -155 55 -95 71 -218
42 -315 -21 -70 -19 -75 15 -24 16 25 30 51 30 58 0 6 1 12 3 12 1 0 81 -20
178 -44 196 -49 259 -76 311 -134 75 -83 76 -173 4 -317 -58 -114 -151 -245
-259 -360 -46 -49 -98 -117 -116 -150 -56 -103 -154 -185 -221 -185 -46 0
-119 92 -198 248 -40 78 -72 154 -72 168 0 36 38 114 55 114 18 0 93 94 131
163 15 28 28 67 30 88 1 20 10 50 20 66 11 16 -14 -2 -56 -42 -83 -77 -162
-133 -260 -182 -76 -39 -159 -68 -167 -59 -5 5 14 106 34 176 2 8 -8 -7 -22
-33 -38 -71 -83 -216 -107 -347 -30 -163 -30 -475 0 -641 29 -157 63 -261 101
-304 36 -42 38 -49 12 -67 -16 -11 -17 -20 -10 -63 14 -86 11 -151 -8 -166
-24 -21 -218 -18 -319 5 -113 25 -202 71 -237 121 -15 22 -33 68 -40 102 -7
35 -18 68 -24 74 -9 9 -9 20 2 47 8 19 13 37 11 41 -3 4 -14 72 -25 152 -12
79 -36 250 -55 379 -19 129 -40 316 -46 415 l-12 180 25 65 c14 36 28 74 32
85 11 28 -93 -73 -112 -109 -11 -21 -14 -51 -12 -110 l4 -81 -80 3 c-120 6
-290 37 -417 78 -62 20 -119 41 -125 46 -8 6 -13 34 -13 67 0 111 -57 246
-137 322 -46 43 -46 44 -24 9 54 -85 86 -186 97 -304 10 -114 -15 -214 -96
-387 -85 -177 -103 -248 -102 -394 0 -137 23 -218 82 -288 29 -36 40 -57 39
-80 -1 -18 13 -66 31 -108 50 -117 32 -151 -94 -170 -138 -22 -413 38 -496
107 -22 19 -32 39 -41 85 -7 34 -18 63 -26 66 -10 4 -12 20 -8 67 5 53 1 79
-34 192 -56 185 -67 269 -46 364 33 153 37 197 25 272 -16 107 -53 205 -147
392 -105 211 -118 257 -109 396 17 283 122 489 324 638 77 57 168 105 231 122
49 13 61 8 38 -18 -52 -57 -74 -172 -37 -192 18 -10 28 -5 71 34 43 39 137 95
142 85 1 -2 20 -40 41 -84 71 -144 225 -272 383 -318 78 -23 190 -32 208 -17
25 21 18 50 -15 62 -64 22 -79 114 -32 189 35 54 184 190 158 144 -9 -17 -22
-38 -29 -47 -22 -32 3 -54 57 -50 183 12 387 178 450 365 52 155 41 280 -39
445 -30 63 -55 115 -55 116 0 2 10 1 23 -1 33 -6 92 21 112 51 24 35 30 97 12
120 -13 18 -15 18 -40 1 -25 -16 -29 -16 -51 -1 -31 19 -59 93 -87 231 l-23
106 26 22 c14 12 28 30 31 40 5 14 1 17 -23 17 -43 0 -64 36 -58 101 4 35 22
83 63 161 31 61 60 131 64 157 l7 46 18 -34 c29 -55 19 -148 -22 -207 -40 -56
-38 -78 5 -82 64 -6 153 61 195 147 30 61 36 175 14 262 -9 35 -41 119 -71
185 -86 196 -111 300 -88 382 5 20 10 23 35 18 l29 -6 -35 42 c-69 80 -96 193
-72 304 60 287 304 582 516 623 60 12 63 12 97 5z m408 -4 c83 -14 174 -61
226 -117 40 -44 42 -48 22 -51 -14 -2 -35 11 -65 40 -52 52 -106 80 -168 85
l-45 4 39 -15 c43 -16 102 -60 124 -94 13 -19 13 -22 -2 -28 -11 -4 -27 3 -45
20 -35 34 -45 33 -27 -3 l15 -28 -42 -13 c-45 -13 -161 -69 -156 -75 2 -1 38
6 79 16 261 67 508 13 666 -145 111 -112 165 -253 151 -394 -9 -87 9 -157 74
-288 96 -193 111 -286 63 -382 -30 -60 -62 -85 -202 -157 -146 -75 -213 -157
-198 -241 6 -31 5 -34 -18 -34 -14 0 -40 13 -57 28 -27 24 -33 37 -36 83 -4
45 0 63 22 104 l27 50 -32 -30 c-39 -37 -59 -74 -69 -128 l-8 -42 -21 45 c-29
61 -27 110 9 226 38 125 45 178 29 245 -11 48 -21 62 -88 124 -185 173 -219
210 -241 265 l-22 55 6 -45 c9 -74 58 -164 122 -228 96 -94 112 -131 77 -180
-22 -32 -31 -27 -37 19 -11 83 -80 149 -302 289 -106 66 -178 135 -208 198
-21 45 -22 58 -22 307 0 260 11 375 40 420 18 29 111 77 175 91 70 16 74 16
145 4z m-1002 -367 l-55 -108 -63 -26 c-138 -57 -248 -182 -299 -338 -51 -159
-44 -173 15 -31 75 179 182 296 307 334 31 10 27 -7 -7 -27 -27 -16 -91 -100
-91 -119 0 -4 21 7 48 26 l47 34 0 -86 c0 -80 3 -92 33 -146 20 -35 31 -65 27
-75 -4 -9 -10 -40 -15 -68 -16 -94 14 -214 97 -393 62 -133 77 -186 77 -275 1
-64 -4 -88 -21 -120 l-22 -40 6 46 c13 105 -43 197 -161 264 -116 66 -175 153
-196 293 -11 71 -3 194 19 294 16 70 -8 28 -39 -69 -53 -164 -50 -296 10 -412
24 -48 118 -151 155 -171 26 -14 27 -18 22 -72 -5 -54 -59 -178 -78 -178 -4 0
-10 18 -14 40 -6 37 -32 92 -153 321 -47 91 -67 189 -59 299 5 74 5 75 -11 40
-8 -19 -17 -72 -20 -117 -6 -106 17 -183 107 -357 66 -128 91 -207 91 -285 0
-35 0 -35 -153 119 -158 161 -200 221 -242 345 -59 178 -47 427 30 600 94 214
317 428 553 531 117 51 118 50 55 -73z m2097 -284 c107 -17 160 -53 145 -98
-3 -10 -40 -45 -83 -78 -42 -33 -114 -97 -160 -143 -78 -77 -84 -81 -97 -64
-30 40 -28 55 11 96 22 21 61 52 87 67 42 24 46 29 28 34 -31 8 -101 -11 -144
-39 l-38 -25 3 123 3 123 40 6 c66 10 136 9 205 -2z m-2523 -1193 c164 -159
188 -203 232 -406 16 -74 37 -155 46 -180 34 -96 87 -160 132 -160 17 -1 16
-2 -1 -15 -11 -8 -38 -15 -60 -15 -40 0 -42 2 -80 68 -21 37 -88 141 -149 231
-101 152 -177 288 -177 318 0 6 -5 15 -11 18 -14 9 -4 -50 22 -130 22 -67 42
-105 183 -349 123 -214 210 -384 232 -461 23 -75 24 -232 2 -290 l-15 -40 -1
80 c-1 201 -104 436 -257 585 l-56 55 56 -85 c69 -104 145 -260 177 -360 33
-106 33 -263 0 -335 -46 -101 -81 -144 -141 -174 -31 -16 -66 -31 -78 -35 -22
-7 -22 -7 -7 29 37 90 24 248 -33 394 -36 90 -45 97 -36 26 4 -33 8 -100 8
-150 -1 -122 -21 -162 -141 -278 -130 -125 -168 -206 -141 -299 6 -25 5 -28
-15 -28 -35 0 -96 46 -118 90 -25 49 -26 115 -2 177 10 27 53 104 97 173 71
114 105 177 105 197 0 4 -13 -13 -28 -38 -16 -24 -59 -80 -96 -123 -79 -93
-122 -153 -137 -193 -19 -50 -27 -112 -19 -153 8 -46 -1 -45 -24 4 -24 50 -21
124 8 180 23 46 23 47 3 33 -33 -21 -87 -106 -87 -135 0 -25 0 -25 -20 -7 -25
23 -92 154 -84 166 3 5 11 9 18 9 19 0 152 68 165 84 9 11 -2 10 -48 -5 -33
-10 -98 -26 -143 -35 -46 -9 -105 -25 -132 -35 -46 -17 -47 -17 -32 0 31 34
111 69 228 99 64 17 134 40 155 50 55 28 136 118 173 193 77 152 122 199 188
199 45 0 53 17 42 86 -6 32 -10 77 -10 99 l1 40 15 -30 c9 -16 43 -77 76 -134
33 -57 68 -125 78 -152 23 -66 32 -73 24 -19 -10 65 -31 124 -79 220 -45 91
-95 220 -95 248 0 17 66 -77 110 -155 13 -24 25 -41 27 -39 6 6 -58 157 -102
244 -21 40 -35 76 -31 79 3 3 21 -6 41 -21 34 -26 35 -26 26 -4 -5 13 -32 61
-60 108 -62 102 -124 257 -145 362 -16 77 -21 269 -10 340 l6 37 45 -61 c25
-34 106 -120 180 -192z m2187 -42 c28 -72 -33 -342 -91 -406 -18 -21 -63 -24
-81 -6 -7 7 -12 23 -12 36 0 19 4 23 19 19 10 -2 26 0 35 5 20 11 57 69 79
124 15 40 15 42 -3 47 -46 12 -43 87 5 87 28 0 34 26 13 59 -9 15 -9 23 1 35
17 20 27 20 35 0z m-3784 -730 c114 -26 205 -78 301 -173 72 -72 93 -101 132
-181 52 -107 77 -211 77 -323 l0 -73 -47 -23 c-27 -12 -76 -41 -110 -63 l-63
-40 -35 31 c-143 126 -346 114 -478 -28 -75 -80 -92 -127 -91 -246 0 -91 4
-109 38 -200 91 -238 108 -298 113 -380 10 -156 -38 -309 -135 -432 -34 -42
-121 -114 -178 -146 -7 -4 10 26 37 67 89 134 134 288 111 386 -10 44 -10 45
-11 10 -3 -71 -32 -177 -70 -255 -66 -132 -148 -211 -238 -228 -32 -6 -31 -5
31 56 159 157 178 289 98 672 -22 105 -46 235 -52 290 -21 173 6 323 75 426
20 28 34 53 32 56 -10 9 -87 -120 -113 -187 -27 -71 -28 -84 -29 -240 0 -150
3 -181 35 -335 29 -141 34 -192 35 -300 0 -135 -12 -196 -53 -257 -17 -26 -17
-26 -14 47 5 92 -19 178 -88 315 -237 472 -300 839 -199 1145 44 132 101 227
194 321 83 84 154 131 242 159 29 9 57 23 63 31 16 18 4 49 -23 61 -20 9 -17
11 31 27 107 36 248 39 382 10z m1292 -2279 c67 -20 123 -37 125 -38 1 -2 -11
-37 -27 -79 -62 -159 -76 -376 -34 -538 20 -81 84 -219 112 -244 16 -14 19
-22 11 -32 -7 -9 -6 -21 5 -43 23 -43 20 -66 -10 -80 -30 -13 -181 -31 -270
-31 -59 0 -64 2 -93 36 -18 20 -34 49 -38 65 -3 16 -11 29 -19 29 -9 0 -13 13
-12 43 1 29 -10 69 -36 129 -64 151 -80 273 -51 395 8 34 43 121 79 195 35 73
70 153 76 178 7 25 14 51 16 58 3 10 9 10 23 2 11 -5 75 -26 143 -45z"/>
<path d="M3718 6815 c-145 -216 -181 -380 -113 -514 14 -28 29 -51 33 -51 5 0
20 39 34 88 14 48 38 127 53 177 17 57 32 141 41 234 7 80 12 146 11 147 -1 2
-28 -35 -59 -81z"/>
<path d="M3902 5918 c5 -19 189 -107 218 -105 63 5 13 84 -68 107 -54 15 -155
13 -150 -2z"/>
<path d="M4014 5586 c-49 -21 -103 -75 -132 -130 -24 -45 -27 -62 -27 -146 0
-78 4 -104 23 -145 41 -89 134 -165 202 -165 21 0 19 3 -15 19 -44 19 -119 98
-128 132 -5 20 -4 20 21 -3 40 -38 66 -48 117 -48 72 0 122 34 160 109 13 26
16 53 13 112 -3 67 -7 83 -33 121 -17 24 -50 53 -75 67 -44 22 -44 23 -11 17
45 -8 96 -40 127 -81 34 -46 64 -135 64 -194 0 -57 -30 -145 -63 -187 l-22
-29 22 16 c101 70 140 253 81 380 -30 66 -85 124 -142 150 -48 22 -137 24
-182 5z"/>
<path d="M1142 4360 c-52 -12 -52 -23 -1 -15 112 17 276 -36 387 -124 99 -79
189 -226 217 -356 7 -33 14 -48 14 -34 2 48 -38 180 -76 252 -45 85 -145 190
-219 229 -95 51 -227 71 -322 48z"/>
</g>
</svg>
